<?xml version="1.0" encoding="UTF-8" standalone="no"?>
<svg width="28px" height="12px" viewBox="0 0 28 12" version="1.1" xmlns="http://www.w3.org/2000/svg" xmlns:xlink="http://www.w3.org/1999/xlink" xmlns:sketch="http://www.bohemiancoding.com/sketch/ns">
    <!-- Generator: Sketch 3.3.2 (12043) - http://www.bohemiancoding.com/sketch -->
    <title>Rectangle 25</title>
    <desc>Created with Sketch.</desc>
    <defs></defs>
    <g id="Layouts" stroke="none" stroke-width="1" fill="none" fill-rule="evenodd" sketch:type="MSPage">
        <g id="Mobile/Home-Page" sketch:type="MSArtboardGroup" transform="translate(-146.000000, -523.000000)" fill-opacity="0.66" fill="#FFFFFF">
            <g id="Rectangle-25-+-Rectangle-98-+-Rectangle-97" sketch:type="MSLayerGroup" transform="translate(0.000000, 523.000000)">
                <path d="M146.650909,9 C146.291422,9 146,9.29861927 146,9.65095532 L146,11.3490447 C146,11.7085574 146.295508,12 146.650909,12 L173.349091,12 C173.708578,12 174,11.7013807 174,11.3490447 L174,9.65095532 C174,9.29144262 173.704492,9 173.349091,9 L146.650909,9 Z M173.349091,0 C173.708578,0 174,0.29861927 174,0.650955319 L174,2.34904468 C174,2.70855738 173.704492,3 173.349091,3 L146.650909,3 C146.291422,3 146,2.70138073 146,2.34904468 L146,0.650955319 C146,0.291442624 146.295508,0 146.650909,0 L173.349091,0 Z" id="Rectangle-25" sketch:type="MSShapeGroup"></path>
            </g>
        </g>
    </g>
</svg>