<?xml version="1.0" encoding="UTF-8" standalone="no"?>
<svg width="134px" height="33px" viewBox="0 0 134 33" version="1.1" xmlns="http://www.w3.org/2000/svg" xmlns:xlink="http://www.w3.org/1999/xlink" xmlns:sketch="http://www.bohemiancoding.com/sketch/ns">
    <!-- Generator: Sketch 3.1.1 (8761) - http://www.bohemiancoding.com/sketch -->
    <title>logo-colonial-life</title>
    <desc>Created with Sketch.</desc>
    <defs></defs>
    <g id="Page-1" stroke="none" stroke-width="1" fill="none" fill-rule="evenodd" sketch:type="MSPage">
        <g id="Grid-Test-3" sketch:type="MSArtboardGroup" transform="translate(-10.000000, -11.000000)">
            <g id="logo-colonial-life" sketch:type="MSLayerGroup" transform="translate(10.000000, 11.000000)">
                <path d="M13.812531,21.0533158 C12.3169252,19.5091843 10.6140184,18.7210115 8.74722444,18.7210115 C7.15393752,18.7210115 5.78857311,19.2729472 4.69237435,20.3488998 C3.59834627,21.432369 3.04373482,22.7853632 3.04373482,24.3681517 C3.04373482,25.4688017 3.28685217,26.4663665 3.77308687,27.3189676 C4.26040691,28.1833806 4.95611326,28.8598777 5.84066969,29.3473851 C6.72088474,29.8305974 7.72157312,30.0807939 8.80474774,30.0807939 C9.72729126,30.0807939 10.581458,29.9068375 11.3466265,29.5696628 C12.093344,29.2314142 12.9247186,28.6139764 13.8103603,27.751711 C13.900444,27.8429844 15.7552991,29.7618738 15.8551509,29.8542211 C14.6623564,30.9978233 13.5184024,31.8021032 12.4558494,32.2477323 C11.3759308,32.700878 10.1277837,32.9360412 8.75156582,32.9360412 C6.20643106,32.9360412 4.09217839,32.1199495 2.47392853,30.526423 C0.850251936,28.9286012 0.0319015697,26.8593791 0.0319015697,24.3595612 C0.0319015697,22.7434848 0.403089667,21.2906267 1.14003914,20.0353487 C1.88024464,18.7865136 2.95256581,17.7588823 4.32661298,16.9911117 C5.70717222,16.229784 7.21146082,15.8453619 8.79606498,15.8453619 C10.1462345,15.8453619 11.4660144,16.1299202 12.7163323,16.6947416 C13.9481992,17.2509725 15.0172643,18.052031 15.9170156,19.0710719 L13.812531,21.0533158 M20.3418981,29.2509749 L20.3418981,29.2509749 C19.7007539,28.6142134 19.3703012,27.7848952 19.3703012,26.7691332 C19.3703012,25.782917 19.7040475,24.9607305 20.3539744,24.3260066 C21.0093906,23.6872074 21.8382669,23.3652608 22.8208423,23.3652608 C23.8209832,23.3652608 24.6619359,23.684151 25.3063736,24.3137808 C25.9530069,24.9403541 26.2768725,25.7666159 26.2768725,26.7691332 C26.2768725,27.7675753 25.9464198,28.5979123 25.2844166,29.2397679 C24.632294,29.8806047 23.7979283,30.2015325 22.8076681,30.2015325 C21.8185057,30.2015325 20.9896293,29.8806047 20.3418981,29.2509749 C20.3418981,29.2509749 20.9896293,29.8806047 20.3418981,29.2509749 L20.3418981,29.2509749 L20.3418981,29.2509749 L20.3418981,29.2509749 L20.3418981,29.2509749 Z M18.6465478,22.2126512 C17.2936692,23.4352182 16.6076727,24.9720698 16.6076727,26.7928252 C16.6076727,28.489962 17.2140257,29.9545281 18.4118648,31.1425239 C19.6107658,32.3252815 21.0730215,32.9360412 22.7625268,32.9360412 C23.9157655,32.9360412 24.9819273,32.6605184 25.93765,32.1178537 C26.8933727,31.5804271 27.6579508,30.8230012 28.2112081,29.8696713 C28.7612796,28.9079605 29.0395011,27.8687261 29.0395011,26.7718729 C29.0395011,25.6813054 28.7665891,24.6483567 28.2154557,23.7044553 C27.6653842,22.760554 26.8933727,22.0031281 25.9100402,21.4552253 C24.9288316,20.9052273 23.8679794,20.6307521 22.7540315,20.6307521 C21.2121322,20.6307521 19.8295201,21.1650359 18.6465478,22.2126512 L18.6465478,22.2126512 L18.6465478,22.2126512 L18.6465478,22.2126512 L18.6465478,22.2126512 Z M30.4208153,16.528989 L30.4208153,32.9360412 L33.1834439,32.9360412 L33.1834439,16.528989 L30.4208153,16.528989 M38.9918363,29.2509749 L38.9918363,29.2509749 C38.3441051,28.6142134 38.0180438,27.7848952 38.0180438,26.7691332 C38.0180438,25.782917 38.3484965,24.9607305 39.0017169,24.3260066 C39.6571331,23.6872074 40.4849116,23.3652608 41.4652913,23.3652608 C42.4709214,23.3652608 43.305287,23.684151 43.9519204,24.3137808 C44.5952602,24.9403541 44.9246151,25.7666159 44.9246151,26.7691332 C44.9246151,27.7675753 44.5930645,28.5979123 43.9343548,29.2397679 C43.2789387,29.8806047 42.4423773,30.2015325 41.4543128,30.2015325 C40.4651503,30.2015325 39.636274,29.8806047 38.9918363,29.2509749 C38.9918363,29.2509749 39.636274,29.8806047 38.9918363,29.2509749 L38.9918363,29.2509749 L38.9918363,29.2509749 L38.9918363,29.2509749 L38.9918363,29.2509749 Z M37.2939421,22.2126512 C35.9391711,23.4352182 35.2554152,24.9720698 35.2554152,26.7928252 C35.2554152,28.489962 35.8627264,29.9545281 37.0582374,31.1425239 C38.2569336,32.3252815 39.7178778,32.9360412 41.4113415,32.9360412 C42.5622598,32.9360412 43.6271777,32.6605184 44.5837989,32.1178537 C45.5351114,31.5804271 46.3006207,30.8230012 46.8537834,29.8696713 C47.4058844,28.9079605 47.6872436,27.8687261 47.6872436,26.7718729 C47.6872436,25.6813054 47.4090696,24.6483567 46.8590921,23.7044553 C46.3080528,22.760554 45.5351114,22.0031281 44.5561938,21.4552253 C43.5740911,20.9052273 42.5134201,20.6307521 41.4007242,20.6307521 C39.8622735,20.6307521 38.4788358,21.1650359 37.2939421,22.2126512 L37.2939421,22.2126512 L37.2939421,22.2126512 L37.2939421,22.2126512 L37.2939421,22.2126512 Z M54.5186114,20.968001 L54.5186114,20.968001 C53.9833888,21.1849573 53.374848,21.5920189 52.7066053,22.1666309 L52.5945332,22.2665167 L52.5945332,20.94115 L49.759215,20.94115 L49.759215,32.9360412 L52.5945332,32.9360412 L52.5945332,28.1361515 C52.5945332,26.8537464 52.6374767,26.0460674 52.7265059,25.6540424 C52.8961851,24.9172502 53.2041214,24.3297497 53.6408882,23.9108737 C54.0839394,23.4898496 54.6212569,23.2771894 55.2392243,23.2771894 C55.7147449,23.2771894 56.1211371,23.4050003 56.4500214,23.6606221 C56.7705265,23.9226881 57.0051447,24.3007506 57.13607,24.7872912 C57.2649005,25.27598 57.3277446,26.2211361 57.3277446,27.6936465 L57.3277446,32.9360412 L60.119072,32.9360412 L60.119072,24.9838408 C60.119072,23.6133643 59.780761,22.55973 59.1104235,21.8691215 C58.3081132,21.0410358 57.323555,20.6307521 56.175602,20.6307521 C55.6120995,20.6307521 55.0569762,20.7435264 54.5186114,20.968001 M62.8817005,20.6307521 L62.8817005,32.9360412 L65.644329,32.9360412 L65.644329,20.6307521 L62.8817005,20.6307521 M71.1695861,26.7602331 C71.1695861,25.773264 71.4943292,24.950454 72.1438155,24.316981 C72.7899993,23.6794795 73.6156175,23.3652608 74.5953511,23.3652608 C75.5960003,23.3652608 76.4370301,23.6704155 77.0920205,24.3018743 C77.7492126,24.9242691 78.0761574,25.746072 78.0761574,26.7491549 C78.0761574,27.7743942 77.7492126,28.613318 77.0920205,29.246791 C76.4370301,29.8812711 75.6026053,30.2015325 74.608561,30.2015325 C73.6409365,30.2015325 72.8164191,29.8722071 72.1581262,29.2296701 C71.5009342,28.5871331 71.1695861,27.754252 71.1695861,26.7602331 C71.1695861,26.7602331 71.1695861,27.754252 71.1695861,26.7602331 L71.1695861,26.7602331 L71.1695861,26.7602331 L71.1695861,26.7602331 L71.1695861,26.7602331 Z M70.0490393,22.351984 L70.0490393,22.351984 C68.957905,23.5054084 68.4069575,24.9993078 68.4069575,26.8074918 C68.4069575,28.5371047 68.9772743,30.0069089 70.0974624,31.1729047 C71.2316394,32.3409958 72.5810303,32.9360412 74.1230375,32.9360412 C74.8052655,32.9360412 75.4519831,32.8176607 76.040593,32.5725187 C76.6259747,32.3378529 77.2188888,31.9397591 77.8107269,31.3991896 L77.9280185,31.2829043 L77.9280185,32.6332804 L80.8387859,32.6332804 L80.8387859,20.9335129 L77.9280185,20.9335129 L77.9280185,22.3415079 L77.8074987,22.2126512 C77.2716162,21.6909388 76.6819303,21.2907497 76.0535058,21.0236078 C75.4261574,20.7606564 74.7493099,20.6307521 74.0326477,20.6307521 C72.4744994,20.6307521 71.1358692,21.2121786 70.0490393,22.351984 L70.0490393,22.351984 L70.0490393,22.351984 L70.0490393,22.351984 L70.0490393,22.351984 Z M83.6014144,16.528989 L83.6014144,32.9360412 L86.3640429,32.9360412 L86.3640429,16.528989 L83.6014144,16.528989 M93.9612714,15.8453619 L93.9612714,32.9360412 L101.5585,32.9360412 L101.5585,30.0256321 L96.968711,30.0256321 L96.968711,15.8453619 L93.9612714,15.8453619 M111.877492,16.4157714 C111.404782,16.7938838 111.11983,17.3178395 111.039205,17.9692731 C110.99834,18.2566385 110.967415,19.207321 110.962997,20.795393 L110.962997,20.8710155 L109.846385,20.8710155 L109.846385,23.3147018 L110.962997,23.3147018 L110.962997,32.9360412 L113.952776,32.9360412 L113.952776,23.3147018 L115.929764,23.3147018 L115.929764,20.8710155 L113.952776,20.8710155 L113.960508,19.2688993 C113.960508,18.8918673 114.02788,18.6466344 114.163729,18.5213172 C114.354801,18.3549477 114.640857,18.2706827 115.021896,18.2706827 C115.294698,18.2706827 115.649231,18.3387429 116.0623,18.4489357 L116.0623,16.2634461 C115.279236,15.9890446 114.556917,15.8453619 113.932896,15.8453619 C113.050431,15.8453619 112.356828,16.0365787 111.877492,16.4157714 M123.023236,22.6816336 C123.82893,22.6816336 124.549815,22.8656058 125.160881,23.2281124 C125.773035,23.5933379 126.185124,24.0763781 126.393887,24.6518574 L126.422157,24.7325151 L119.515585,24.7325151 L119.564514,24.6446073 C119.914627,24.0075018 120.303882,23.5534622 120.713797,23.2915511 C121.375967,22.890075 122.155566,22.6816336 123.023236,22.6816336 C123.023236,22.6816336 122.155566,22.6816336 123.023236,22.6816336 L123.023236,22.6816336 L123.023236,22.6816336 L123.023236,22.6816336 L123.023236,22.6816336 Z M118.503963,22.3959838 C117.342981,23.5672177 116.752957,25.0663552 116.752957,26.8473012 C116.752957,28.5790093 117.342981,30.0446231 118.5082,31.1980475 C119.668123,32.3493767 121.19456,32.9360412 123.052555,32.9360412 C124.245315,32.9360412 125.287657,32.7223277 126.154156,32.3053768 C127.000529,31.8968069 127.728261,31.261952 128.339472,30.4196693 C128.183756,30.3515743 126.009033,29.3427208 125.930646,29.3060543 C125.120289,30.0729087 124.147861,30.4636692 123.028191,30.4636692 C122.073771,30.4636692 121.274007,30.2111939 120.660678,29.6999576 C120.049467,29.1939594 119.659649,28.4993905 119.521941,27.6445364 L119.506052,27.5628224 L129.171014,27.5628224 C129.178429,27.4549181 129.184785,27.0652052 129.184785,27.0652052 C129.184785,25.1417835 128.596879,23.5672177 127.429541,22.3959838 C126.271737,21.2237023 124.744241,20.6307521 122.878831,20.6307521 C121.137358,20.6307521 119.659649,21.2237023 118.503963,22.3959838 L118.503963,22.3959838 L118.503963,22.3959838 L118.503963,22.3959838 L118.503963,22.3959838 Z M104.321128,20.6307521 L104.321128,32.9360412 L107.083757,32.9360412 L107.083757,20.6307521 L104.321128,20.6307521 M131.645068,30.7908868 L131.867295,30.7908868 C132.12461,30.7908868 132.333971,30.7043217 132.333971,30.4920593 C132.333971,30.3046992 132.199465,30.1813735 131.903553,30.1813735 C131.780744,30.1813735 131.694192,30.192046 131.645068,30.20509 L131.645068,30.7908868 L131.645068,30.7908868 L131.645068,30.7908868 L131.645068,30.7908868 Z M131.634542,31.9387638 L131.165527,31.9387638 L131.165527,29.8932185 C131.349156,29.869502 131.607641,29.8315556 131.939811,29.8315556 C132.321105,29.8315556 132.494208,29.8932185 132.629883,29.9928276 C132.752693,30.0805786 132.838075,30.2299923 132.838075,30.4292106 C132.838075,30.6794194 132.654445,30.8406913 132.420522,30.916584 L132.420522,30.9403005 C132.617018,31.0031491 132.714096,31.1656069 132.777255,31.4395321 C132.838075,31.7514037 132.887199,31.8628711 132.923457,31.9387638 L132.432219,31.9387638 C132.371399,31.8628711 132.333971,31.6885551 132.271981,31.4395321 C132.236893,31.2272698 132.112914,31.1264748 131.854429,31.1264748 L131.634542,31.1264748 L131.634542,31.9387638 L131.634542,31.9387638 L131.634542,31.9387638 L131.634542,31.9387638 Z M130.391242,30.8786377 C130.391242,31.78935 131.067279,32.5115165 131.964373,32.5115165 C132.838075,32.5245605 133.501246,31.78935 133.501246,30.8904959 C133.501246,29.9809694 132.838075,29.2457589 131.939811,29.2457589 C131.067279,29.2457589 130.391242,29.9809694 130.391242,30.8786377 C130.391242,30.8786377 130.391242,29.9809694 130.391242,30.8786377 L130.391242,30.8786377 L130.391242,30.8786377 L130.391242,30.8786377 L130.391242,30.8786377 Z M134.019385,30.8786377 C134.019385,32.0253289 133.109425,32.9360412 131.952677,32.9360412 C130.797098,32.9360412 129.875442,32.0253289 129.875442,30.8786377 C129.875442,29.7319465 130.797098,28.8342782 131.964373,28.8342782 C133.109425,28.8342782 134.019385,29.7319465 134.019385,30.8786377 L134.019385,30.8786377 L134.019385,30.8786377 L134.019385,30.8786377 L134.019385,30.8786377 Z" id="logo" fill="#265B80" sketch:type="MSShapeGroup"></path>
                <path d="M62.1910434,13.4536836 C62.1910434,14.772564 63.2748731,15.8453619 64.607316,15.8453619 C65.9428408,15.8453619 67.0256433,14.772564 67.0256433,13.4536836 C67.0256433,12.128702 65.9428408,11.0599716 64.607316,11.0599716 C63.2748731,11.0599716 62.1910434,12.128702 62.1910434,13.4536836 Z M73.9337266,13.1108532 C75.0737897,13.1108532 76.004186,11.7283286 76.004186,10.0360693 C76.004186,8.33970755 75.0737897,6.9582086 73.9337266,6.9582086 C72.7896315,6.9582086 71.8602432,8.33970755 71.8602432,10.0360693 C71.8602432,11.7283286 72.7896315,13.1108532 73.9337266,13.1108532 Z M96.0332428,3.54468836 C96.0332428,5.425817 96.8075442,6.9582086 97.7603788,6.9582086 C98.7112406,6.9582086 99.4865284,5.425817 99.4865284,3.54468836 C99.4865284,1.65740553 98.74675,0.121936847 97.7968745,0.121936847 C96.8420672,0.121936847 96.0332428,1.65740553 96.0332428,3.54468836 Z M80.8387859,5.24542687 C80.8387859,7.31984515 81.6099298,9.00909012 82.5631805,9.00909012 C83.5175553,9.00909012 84.2920715,7.31984515 84.2920715,5.24542687 C84.2920715,3.17419183 83.5175553,1.4891912 82.5631805,1.4891912 C81.6099298,1.4891912 80.8387859,3.17419183 80.8387859,5.24542687 Z M103.630471,12.4277475 C103.630471,13.932953 104.56438,15.1617347 105.705209,15.1617347 C106.847145,15.1617347 107.774414,13.932953 107.774414,12.4277475 C107.774414,10.9162835 106.847145,9.69271729 105.705209,9.69271729 C104.56438,9.69271729 103.630471,10.9162835 103.630471,12.4277475 Z M88.4360143,7.64237619 C88.4360143,10.2342149 89.2325676,12.427226 90.1632403,12.427226 C91.1020768,12.427226 91.8893,10.2342149 91.8893,7.64237619 C91.8893,5.04621417 91.1020768,2.85644555 90.1632403,2.85644555 C89.2325676,2.85644555 88.4360143,5.04621417 88.4360143,7.64237619 Z" id="logo-dots" fill="#5B7183" sketch:type="MSShapeGroup"></path>
            </g>
        </g>
    </g>
</svg>